<?xml version="1.0" encoding="UTF-8" standalone="no"?>
<!-- Created with Inkscape (http://www.inkscape.org/) -->

<svg
   xmlns:dc="http://purl.org/dc/elements/1.1/"
   xmlns:cc="http://creativecommons.org/ns#"
   xmlns:rdf="http://www.w3.org/1999/02/22-rdf-syntax-ns#"
   xmlns:svg="http://www.w3.org/2000/svg"
   xmlns="http://www.w3.org/2000/svg"
   xmlns:sodipodi="http://sodipodi.sourceforge.net/DTD/sodipodi-0.dtd"
   xmlns:inkscape="http://www.inkscape.org/namespaces/inkscape"
   width="256"
   height="256"
   id="svg2"
   version="1.1"
   inkscape:version="0.48.4 r9939"
   sodipodi:docname="TimeKeeperIcon.svg">
  <defs
     id="defs4" />
  <sodipodi:namedview
     id="base"
     pagecolor="#ffffff"
     bordercolor="#666666"
     borderopacity="1.0"
     inkscape:pageopacity="0.0"
     inkscape:pageshadow="2"
     inkscape:zoom="1.4"
     inkscape:cx="-9.4831314"
     inkscape:cy="131.68024"
     inkscape:document-units="px"
     inkscape:current-layer="layer1"
     showgrid="false"
     fit-margin-top="0"
     fit-margin-left="0"
     fit-margin-right="0"
     fit-margin-bottom="0"
     inkscape:window-width="1366"
     inkscape:window-height="715"
     inkscape:window-x="-8"
     inkscape:window-y="-8"
     inkscape:window-maximized="1" />
  <metadata
     id="metadata7">
    <rdf:RDF>
      <cc:Work
         rdf:about="">
        <dc:format>image/svg+xml</dc:format>
        <dc:type
           rdf:resource="http://purl.org/dc/dcmitype/StillImage" />
        <dc:title />
      </cc:Work>
    </rdf:RDF>
  </metadata>
  <g
     inkscape:label="Layer 1"
     inkscape:groupmode="layer"
     id="layer1"
     transform="translate(-40,-136.36219)">
    <g
       id="g3764"
       transform="matrix(0.75294118,0,0,0.75294118,9.8823529,96.936539)"
       style="stroke:#000000;stroke-opacity:1;stroke-width:2.65624999;stroke-miterlimit:4;stroke-dasharray:none">
      <path
         inkscape:connector-curvature="0"
         id="path2985"
         d="M 210.01552,52.362186 C 116.12341,52.362186 40,128.48559 40,222.37765 40,316.26976 116.12341,392.36218 210.01552,392.36218 303.90758,392.36218 380,316.26976 380,222.37765 380,128.48559 303.90758,52.362186 210.01552,52.362186 z m 0,32.75727 c 75.79719,0 137.22722,61.461004 137.22722,137.258194 0,75.79724 -61.43003,137.22724 -137.22722,137.22724 -75.79722,0 -137.25825,-61.43 -137.25825,-137.22724 0,-75.79719 61.46103,-137.258194 137.25825,-137.258194 z"
         style="fill:#e3e4dd;fill-opacity:1;stroke:#000000;stroke-opacity:1;stroke-width:2.65624999;stroke-miterlimit:4;stroke-dasharray:none" />
      <path
         sodipodi:nodetypes="sscccccccssssscsss"
         inkscape:connector-curvature="0"
         id="rect3759"
         d="m 313.3,221.33093 c 0,6.1068 -4.93,11.03125 -11.03,11.03125 l -86.94,0 -4.16,0 -0.1,0 c -0.36,-0.002 -0.71,-0.0271 -1.06,-0.0625 0,-0.002 0,0.002 -0.1,0 -0.35,-0.0373 -0.7,-0.0872 -1.03,-0.15625 -0.37,-0.0721 -0.71,-0.17341 -1.07,-0.28125 -4.52,-1.37324 -7.81,-5.54795 -7.81,-10.53125 l 0,-121.09375 c 0,-6.106797 4.92,-10.999997 11.03,-10.999997 l 4.22,0 c 6.11,0 11,4.8932 11,10.999997 l 0,105.875 75.94,0 c 6.1,0 11.03,4.8932 11.03,11 z"
         style="fill:#e3e4dd;fill-opacity:1;stroke:#000000;stroke-opacity:1;stroke-width:2.65624999;stroke-miterlimit:4;stroke-dasharray:none" />
    </g>
  </g>
</svg>
