<?xml version="1.0" encoding="UTF-8" standalone="no"?>
<!-- Created with Inkscape (http://www.inkscape.org/) -->

<svg
   xmlns:dc="http://purl.org/dc/elements/1.1/"
   xmlns:cc="http://creativecommons.org/ns#"
   xmlns:rdf="http://www.w3.org/1999/02/22-rdf-syntax-ns#"
   xmlns:svg="http://www.w3.org/2000/svg"
   xmlns="http://www.w3.org/2000/svg"
   xmlns:sodipodi="http://sodipodi.sourceforge.net/DTD/sodipodi-0.dtd"
   xmlns:inkscape="http://www.inkscape.org/namespaces/inkscape"
   width="64"
   height="64"
   id="svg2"
   version="1.1"
   inkscape:version="0.48.4 r9939"
   sodipodi:docname="FolderButton.svg">
  <defs
     id="defs4">
    <clipPath
       clipPathUnits="userSpaceOnUse"
       id="clipPath3816">
      <rect
         ry="0.95559037"
         y="991.14423"
         x="2.2916501"
         height="9.612751"
         width="10.547323"
         id="rect3818"
         style="fill:none;stroke:#a3a3a3;stroke-width:0.26433715;stroke-linecap:round;stroke-miterlimit:4;stroke-opacity:1;stroke-dasharray:none" />
    </clipPath>
    <clipPath
       clipPathUnits="userSpaceOnUse"
       id="clipPath3820">
      <rect
         ry="0.95559037"
         y="991.14423"
         x="2.2916501"
         height="9.612751"
         width="10.547323"
         id="rect3822"
         style="fill:none;stroke:#a3a3a3;stroke-width:0.26433715;stroke-linecap:round;stroke-miterlimit:4;stroke-opacity:1;stroke-dasharray:none" />
    </clipPath>
    <clipPath
       clipPathUnits="userSpaceOnUse"
       id="clipPath3846">
      <path
         style="fill:none;stroke:#959595;stroke-width:0.15000001;stroke-linecap:round;stroke-miterlimit:4;stroke-opacity:1;stroke-dasharray:none"
         d="m 9.4600589,994.50507 3.0022001,0 c 0.517033,0 0.933273,0.41624 0.933273,0.93327 l 0,0.0935 c -0.717438,-0.0991 -0.97685,-0.0461 -1.699103,-0.0403 -0.516982,0.004 -1.035344,-0.0566 -1.45878,0.25609 -0.6782107,0.50075 -0.6540499,1.79069 -1.0008044,2.68603 -0.1867251,0.48214 -0.2457384,1.38316 -0.4645232,1.76204 -0.2187847,0.379 -0.2455357,-4.75734 -0.2455357,-4.75734 -0.259013,-0.44747 0.4162398,-0.93327 0.9332732,-0.93327 z"
         id="path3848"
         inkscape:connector-curvature="0"
         sodipodi:nodetypes="sssccsszss" />
    </clipPath>
    <clipPath
       clipPathUnits="userSpaceOnUse"
       id="clipPath3850">
      <path
         style="fill:none;stroke:#959595;stroke-width:0.15262279;stroke-linecap:round;stroke-miterlimit:4;stroke-opacity:1;stroke-dasharray:none"
         d="m 275.93689,1029.5874 3.0022,0 c 0.51704,0 1.04481,0.4309 1.18335,0.9662 l 0.0251,0.097 c -0.74399,-0.1026 -0.9892,-0.048 -1.7099,-0.042 -0.51591,0 -1.05051,-0.059 -1.39016,0.2651 -0.54404,0.5184 -0.17424,1.8539 -0.28109,2.7808 -0.0575,0.4991 0.12488,1.4319 0.008,1.8242 -0.11723,0.3924 -1.52027,-4.9252 -1.52027,-4.9252 -0.37891,-0.4632 0.16618,-0.9662 0.68321,-0.9662 z"
         id="path3852"
         inkscape:connector-curvature="0"
         sodipodi:nodetypes="sssccsszss" />
    </clipPath>
    <clipPath
       clipPathUnits="userSpaceOnUse"
       id="clipPath3866">
      <path
         style="fill:none;stroke:#000000;stroke-width:0.15118556;stroke-linecap:butt;stroke-linejoin:miter;stroke-miterlimit:4;stroke-opacity:1;stroke-dasharray:none"
         d="m 181.49943,1022.333 c 56.09,0 0,0 56.09,0 0.46606,2.647 -0.0189,-0.1074 0.44716,2.5396 -50.34985,0 0,0 -50.34985,0 -0.54778,23.873 0,0 -0.54778,23.873 -0.98913,0 0,0 -0.98913,0 -4.6504,-26.4126 0,0 -4.6504,-26.4126 z"
         id="path3868"
         inkscape:connector-curvature="0"
         sodipodi:nodetypes="ccccccc" />
    </clipPath>
    <clipPath
       clipPathUnits="userSpaceOnUse"
       id="clipPath3870">
      <path
         style="fill:none;stroke:#000000;stroke-width:0.15000001;stroke-linecap:butt;stroke-linejoin:miter;stroke-miterlimit:4;stroke-opacity:1;stroke-dasharray:none"
         d="m 1.5,1006.3622 c 56.09,0 0,0 56.09,0 0,2.6057 0,-0.1057 0,2.5 -50.3498483,0 0,0 -50.3498483,0 -4.7510256,23.5 0,0 -4.7510256,23.5 -0.9891261,0 0,0 -0.9891261,0 0,-26 0,0 0,-26 z"
         id="path3872"
         inkscape:connector-curvature="0"
         sodipodi:nodetypes="ccccccc" />
    </clipPath>
    <clipPath
       clipPathUnits="userSpaceOnUse"
       id="clipPath3920">
      <path
         style="fill:none;stroke:#959595;stroke-width:0.15118556;stroke-linecap:round;stroke-miterlimit:4;stroke-opacity:1;stroke-dasharray:none"
         d="m 178.63573,1015.0949 c 7.57926,43.0474 0,0 7.57926,43.0474 l 7.08931,0 -5.94715,-33.7776 51.125,0 -1.63211,-9.2698 -48.375,0 z"
         id="path3922"
         inkscape:connector-curvature="0"
         sodipodi:nodetypes="cccccccc" />
    </clipPath>
    <clipPath
       clipPathUnits="userSpaceOnUse"
       id="clipPath3924">
      <path
         style="fill:none;stroke:#959595;stroke-width:0.15000001;stroke-linecap:round;stroke-miterlimit:4;stroke-opacity:1;stroke-dasharray:none"
         d="m -0.08930826,999.23718 c 0,42.37502 0,0 0,42.37502 l 7.08930826,0 0,-33.25 51.125,0 0,-9.12502 -48.375,0 z"
         id="path3926"
         inkscape:connector-curvature="0"
         sodipodi:nodetypes="cccccccc" />
    </clipPath>
    <clipPath
       clipPathUnits="userSpaceOnUse"
       id="clipPath3935">
      <rect
         style="fill:none;stroke:#959595;stroke-width:0.15234385;stroke-linecap:round;stroke-miterlimit:4;stroke-opacity:1;stroke-dasharray:none"
         id="rect3937"
         width="56.119373"
         height="26.185215"
         x="1.4214435"
         y="1037.8049"
         transform="matrix(1,0,0.17340017,0.98485145,0,0)"
         ry="0" />
    </clipPath>
    <clipPath
       clipPathUnits="userSpaceOnUse"
       id="clipPath3954">
      <path
         style="fill:none;stroke:#959595;stroke-width:0.15118556;stroke-linecap:round;stroke-miterlimit:4;stroke-opacity:1"
         d="m 181.37698,1022.0837 56.11938,0 0.38875,2.208 -48.26004,0 4.41694,23.5805 -8.1245,0 z"
         id="path3956"
         inkscape:connector-curvature="0"
         sodipodi:nodetypes="ccccccc" />
    </clipPath>
    <clipPath
       clipPathUnits="userSpaceOnUse"
       id="clipPath3958">
      <path
         style="fill:none;stroke:#959595;stroke-width:0.15000001;stroke-linecap:round;stroke-miterlimit:4;stroke-opacity:1"
         d="m 1.4214435,1006.1168 56.1193735,0 0,2.1735 -48.2600405,0 0.265165,23.2122 -8.124498,0 z"
         id="path3960"
         inkscape:connector-curvature="0"
         sodipodi:nodetypes="ccccccc" />
    </clipPath>
    <clipPath
       clipPathUnits="userSpaceOnUse"
       id="clipPath3970">
      <path
         sodipodi:nodetypes="cccccccc"
         inkscape:connector-curvature="0"
         id="path3972"
         d="m 178.63573,1015.0949 c 7.57926,43.0475 0,0 7.57926,43.0475 l 7.08931,0 -5.94714,-33.7777 51.125,0 -1.63212,-9.2698 -48.375,0 z"
         style="fill:none;stroke:#959595;stroke-width:0.15118556;stroke-linecap:round;stroke-miterlimit:4;stroke-opacity:1;stroke-dasharray:none" />
    </clipPath>
    <clipPath
       clipPathUnits="userSpaceOnUse"
       id="clipPath3974">
      <path
         sodipodi:nodetypes="cccccccc"
         inkscape:connector-curvature="0"
         id="path3976"
         d="m -0.08930826,999.23718 c 0,42.37502 0,0 0,42.37502 l 7.08930826,0 0,-33.25 51.125,0 0,-9.12502 -48.375,0 z"
         style="fill:none;stroke:#959595;stroke-width:0.15000001;stroke-linecap:round;stroke-miterlimit:4;stroke-opacity:1;stroke-dasharray:none" />
    </clipPath>
    <clipPath
       clipPathUnits="userSpaceOnUse"
       id="clipPath3978">
      <path
         sodipodi:nodetypes="cccccccc"
         inkscape:connector-curvature="0"
         id="path3980"
         d="m -0.08930826,999.23718 c 0,42.37502 0,0 0,42.37502 l 7.08930826,0 0,-33.25 51.125,0 0,-9.12502 -48.375,0 z"
         style="fill:none;stroke:#959595;stroke-width:0.15000001;stroke-linecap:round;stroke-miterlimit:4;stroke-opacity:1;stroke-dasharray:none" />
    </clipPath>
  </defs>
  <sodipodi:namedview
     id="base"
     pagecolor="#ffffff"
     bordercolor="#666666"
     borderopacity="1.0"
     inkscape:pageopacity="0.0"
     inkscape:pageshadow="2"
     inkscape:zoom="7.9156676"
     inkscape:cx="31.486772"
     inkscape:cy="41.349466"
     inkscape:document-units="px"
     inkscape:current-layer="layer1"
     showgrid="false"
     showguides="false"
     inkscape:snap-global="true"
     inkscape:object-nodes="true"
     inkscape:snap-smooth-nodes="true"
     inkscape:window-width="1280"
     inkscape:window-height="971"
     inkscape:window-x="-8"
     inkscape:window-y="-8"
     inkscape:window-maximized="1"
     inkscape:snap-object-midpoints="true"
     inkscape:snap-center="true"
     inkscape:snap-bbox="true"
     inkscape:snap-bbox-edge-midpoints="true"
     inkscape:bbox-paths="true"
     inkscape:snap-bbox-midpoints="true" />
  <metadata
     id="metadata7">
    <rdf:RDF>
      <cc:Work
         rdf:about="">
        <dc:format>image/svg+xml</dc:format>
        <dc:type
           rdf:resource="http://purl.org/dc/dcmitype/StillImage" />
        <dc:title></dc:title>
      </cc:Work>
    </rdf:RDF>
  </metadata>
  <g
     inkscape:label="Layer 1"
     inkscape:groupmode="layer"
     id="layer1"
     transform="translate(0,-988.36218)">
    <path
       style="fill:none;fill-opacity:1;stroke:#ffffff;stroke-width:0.43523601000000001;stroke-linecap:round;stroke-miterlimit:4;stroke-opacity:1;stroke-dasharray:none"
       d="m 31.695586,1000.2653 c -0.508957,0 -0.685935,0.4523 -0.90946,0.9094 l -1.676818,3.439 -27.9659043,0 c -0.50895625,0 -0.90946026,0.4004 -0.90946026,0.9094 l 0,34.7016 c 0,0.509 0.40050401,0.9379 0.90946026,0.9379 l 55.9318083,0 c 0.508957,0 0.90946,-0.4289 0.90946,-0.9379 l 0,-34.7016 c 0,-0.509 -0.400503,-0.9094 -0.90946,-0.9094 l -0.966301,0 -1.904183,-3.439 c -0.247156,-0.4448 -0.400504,-0.9094 -0.90946,-0.9094 l -21.599682,0 z"
       id="rect3763"
       inkscape:connector-curvature="0"
       clip-path="url(#clipPath3978)" />
    <path
       style="fill:none;stroke:#ffffff;stroke-width:0.25000000000000000;stroke-linecap:round;stroke-miterlimit:4;stroke-opacity:1"
       clip-path="url(#clipPath3974)"
       d="m 1.8940361,1006.7791 55.4311749,0 0,34.3836 -55.4311749,0 z"
       id="rect3779"
       inkscape:connector-curvature="0"
       sodipodi:nodetypes="ccccc" />
    <rect
       style="fill:none;stroke:#ffffff;stroke-width:0.46186604999999997;stroke-linecap:round;stroke-miterlimit:4;stroke-opacity:1;stroke-dasharray:none;fill-opacity:1"
       id="rect3777-5"
       width="57.604221"
       height="33.617767"
       x="186.57269"
       y="1024.0679"
       ry="0.9332732"
       transform="matrix(1,0,-0.17606733,0.98437813,0,0)" />
  </g>
</svg>
